<?xml version="1.0" encoding="UTF-8" standalone="no"?>
<!DOCTYPE svg PUBLIC "-//W3C//DTD SVG 1.1//EN"
 "http://www.w3.org/Graphics/SVG/1.1/DTD/svg11.dtd">
<!-- Generated by graphviz version 9.0.0 (20230911.1827)
 -->
<!-- Title: automaton Pages: 1 -->
<svg width="62pt" height="395pt"
 viewBox="0.00 0.00 62.00 394.76" xmlns="http://www.w3.org/2000/svg" xmlns:xlink="http://www.w3.org/1999/xlink">
<g id="graph0" class="graph" transform="scale(1 1) rotate(0) translate(4 390.76)">
<title>automaton</title>
<polygon fill="white" stroke="none" points="-4,4 -4,-390.76 58,-390.76 58,4 -4,4"/>
<!-- start -->
<g id="node1" class="node">
<title>start</title>
<ellipse fill="none" stroke="black" cx="27" cy="-368.76" rx="27" ry="18"/>
<text text-anchor="middle" x="27" y="-363.71" font-family="Times,serif" font-size="14.00">start</text>
</g>
<!-- q0 -->
<g id="node2" class="node">
<title>q0</title>
<ellipse fill="none" stroke="black" cx="27" cy="-295.76" rx="27" ry="18"/>
<text text-anchor="middle" x="27" y="-290.71" font-family="Times,serif" font-size="14.00">q0</text>
</g>
<!-- start&#45;&gt;q0 -->
<g id="edge1" class="edge">
<title>start&#45;&gt;q0</title>
<path fill="none" stroke="black" d="M27,-350.58C27,-342.99 27,-333.86 27,-325.3"/>
<polygon fill="black" stroke="black" points="30.5,-325.3 27,-315.3 23.5,-325.3 30.5,-325.3"/>
</g>
<!-- q1 -->
<g id="node3" class="node">
<title>q1</title>
<ellipse fill="none" stroke="black" cx="27" cy="-207.26" rx="27" ry="18"/>
<text text-anchor="middle" x="27" y="-202.21" font-family="Times,serif" font-size="14.00">q1</text>
</g>
<!-- q0&#45;&gt;q1 -->
<g id="edge2" class="edge">
<title>q0&#45;&gt;q1</title>
<path fill="none" stroke="black" d="M27,-277.67C27,-266.02 27,-250.31 27,-236.78"/>
<polygon fill="black" stroke="black" points="30.5,-237.13 27,-227.13 23.5,-237.13 30.5,-237.13"/>
<text text-anchor="middle" x="40.12" y="-246.46" font-family="Times,serif" font-size="14.00">class</text>
</g>
<!-- q2 -->
<g id="node4" class="node">
<title>q2</title>
<ellipse fill="none" stroke="black" cx="27" cy="-118.76" rx="27" ry="18"/>
<text text-anchor="middle" x="27" y="-113.71" font-family="Times,serif" font-size="14.00">q2</text>
</g>
<!-- q1&#45;&gt;q2 -->
<g id="edge3" class="edge">
<title>q1&#45;&gt;q2</title>
<path fill="none" stroke="black" d="M27,-189.17C27,-177.52 27,-161.81 27,-148.28"/>
<polygon fill="black" stroke="black" points="30.5,-148.63 27,-138.63 23.5,-148.63 30.5,-148.63"/>
<text text-anchor="middle" x="31.88" y="-157.96" font-family="Times,serif" font-size="14.00">A</text>
</g>
<!-- q3 -->
<g id="node5" class="node">
<title>q3</title>
<ellipse fill="none" stroke="black" cx="27" cy="-24.13" rx="20.13" ry="20.13"/>
<ellipse fill="none" stroke="black" cx="27" cy="-24.13" rx="24.13" ry="24.13"/>
<text text-anchor="middle" x="27" y="-19.08" font-family="Times,serif" font-size="14.00">q3</text>
</g>
<!-- q2&#45;&gt;q3 -->
<g id="edge4" class="edge">
<title>q2&#45;&gt;q3</title>
<path fill="none" stroke="black" d="M27,-100.34C27,-88.87 27,-73.48 27,-59.6"/>
<polygon fill="black" stroke="black" points="30.5,-59.94 27,-49.94 23.5,-59.94 30.5,-59.94"/>
<text text-anchor="middle" x="36.75" y="-69.46" font-family="Times,serif" font-size="14.00">end</text>
</g>
</g>
</svg>
